<?xml version="1.0" encoding="UTF-8"?>
<svg width="599px" height="425px" viewBox="0 0 599 425" version="1.1" xmlns="http://www.w3.org/2000/svg" xmlns:xlink="http://www.w3.org/1999/xlink">
    <!-- Generator: Sketch 55.1 (78136) - https://sketchapp.com -->
    <title>Love TREE </title>
    <desc>Created with Sketch.</desc>
    <g id="Page-1" stroke="none" stroke-width="1" fill="none" fill-rule="evenodd">
        <g id="Tree-illustration" transform="translate(-151.000000, -460.000000)">
            <g id="Love-TREE-" transform="translate(151.000000, 460.000000)">
                <path d="M461.029184,85.857034 C460.844072,86.0236242 460.603089,86.1495987 460.303834,86.2114978 C452.763674,87.771131 447.338734,91.4114462 443.06877,97.3852806 C439.501312,102.376284 436.903842,108.46971 433.432639,119.076836 C432.831241,120.914559 430.714232,127.533996 430.361008,128.624396 C429.087638,132.55527 428.02101,135.705256 426.895908,138.80274 C424.007416,146.754962 420.961741,153.65374 417.274285,160.241392 C407.714359,177.320231 394.228198,191.373336 374.664453,202.91661 C379.429921,288.040353 388.559948,336.293923 401.807914,347.155057 C403.023963,348.152015 404.715033,349.065098 407.309611,350.18152 C408.407999,350.654146 412.781459,352.425276 413.698606,352.810636 C416.470007,353.975099 418.732045,355.037678 420.920829,356.249281 C426.093307,359.112508 430.339914,362.571669 433.830179,367.112352 C439.383491,374.336972 445.874748,378.689448 453.908909,378.689448 C470.096058,378.689448 481.706266,380.548368 490.557586,384.221687 C497.506222,387.105387 501.838742,390.35525 508.743008,397.009278 C509.02678,397.282764 510.24884,398.464061 510.573842,398.777161 C511.284745,399.462029 511.862438,400.013229 512.426545,400.543076 C519.356793,407.052411 525.31291,411.017693 534.470815,414.341239 C546.183755,418.592048 562.070377,421.029402 584.031482,421.500345 C584.859719,421.518106 585.516739,422.203923 585.499668,423.032159 C585.481217,423.860396 584.7954,424.517416 583.967163,424.500345 C561.703584,424.022226 545.504238,421.536893 533.447381,417.161272 C523.866542,413.684236 517.578622,409.498056 510.372669,402.729761 C509.798017,402.190011 509.211722,401.630603 508.492451,400.937673 C508.16508,400.62229 506.942738,399.440722 506.661194,399.169382 C500.003675,392.753158 495.935601,389.701659 489.407671,386.992552 C480.962291,383.487699 469.730999,381.689448 453.908909,381.689448 C444.763011,381.689448 437.516222,376.830377 431.451656,368.940639 C428.23077,364.750404 424.301019,361.549346 419.467923,358.873984 C417.386503,357.721813 415.216572,356.7025 412.536506,355.576413 C411.64856,355.203323 407.258692,353.425548 406.123852,352.937237 C403.291664,351.718574 401.390077,350.691824 399.905906,349.475049 C382.136418,334.907017 371.939221,261.528706 368.81711,128.28763 C368.408181,127.764679 368.39516,127.033935 368.775682,126.497962 C368.67607,122.141571 368.583958,117.721694 368.49933,113.238292 C368.49933,113.116234 368.509891,112.994351 368.537126,112.875348 C375.002387,84.6254324 382.323008,64.7875722 390.576329,53.3075946 C386.240099,51.3362446 382.499815,48.6420316 379.441477,45.3323243 C379.395541,45.4135845 379.341322,45.4917061 379.278727,45.5655323 L323.457741,111.401856 C322.921991,112.033729 321.975446,112.111653 321.343572,111.575903 C320.711699,111.040154 320.633776,110.093608 321.169525,109.461735 L376.990512,43.6254111 C377.165256,43.4193141 377.383704,43.2721494 377.62068,43.1859895 C376.493801,41.7375153 375.482692,40.1909228 374.593141,38.5534358 C367.343377,25.2080704 371.586886,10.7927275 384.315734,10.8065109 C385.14416,10.8074079 385.815006,11.4797076 385.814108,12.3081342 C385.813211,13.1365609 385.140912,13.8074062 384.312485,13.8065091 C374.35685,13.7957287 370.913043,25.4944563 377.229275,37.1213766 C380.54443,43.2239125 385.723427,47.9605513 392.45061,50.8637745 C392.687475,50.5752164 392.925088,50.2933107 393.16345,50.0180561 C393.705763,49.3918066 394.653069,49.3237622 395.279319,49.8660749 C395.905568,50.4083875 395.973613,51.3556943 395.4313,51.9819439 C395.428228,51.9854913 395.425156,51.98904 395.422085,51.9925898 C403.466641,54.6554395 413.407493,54.9212754 424.797378,52.1276598 C425.889494,51.8597948 426.877119,52.8443955 426.612604,53.9373276 C425.162046,59.9307957 425.74234,65.1797362 427.971976,69.5218328 C428.343037,69.5856386 428.692232,69.7883837 428.933204,70.1224092 C430.318176,72.0422083 431.464591,73.7280721 432.360393,75.2030018 C435.939374,78.4705969 440.854261,80.8382318 446.77233,82.1643473 C460.264178,85.1875882 473.369683,81.2189076 474.358012,73.6792345 C474.594502,71.8751269 477.236334,71.9700591 477.342723,73.7864877 C478.149978,87.5692183 494.055016,95.7693273 511.729345,93.393227 C530.278428,90.8995265 540.675789,78.3243361 534.745071,59.9735015 C534.363755,58.7936346 535.497304,57.6869056 536.667704,58.0963573 C560.680351,66.4969199 578.945944,61.4600446 588.890001,46.7472428 C597.582293,33.8864998 598.130098,15.4223597 590.39265,2.78162934 C589.960155,2.07506003 590.182337,1.15166654 590.888906,0.719172245 C591.595476,0.286677951 592.518869,0.508859648 592.951363,1.21542896 C601.307087,14.8662406 600.721642,34.5990597 591.375535,48.42716 C581.019799,63.7490651 562.334637,69.3524766 538.393971,61.8304114 C543.060774,80.6728272 531.437989,93.7706265 512.129063,96.3664787 C495.081396,98.6583319 479.240692,91.7286096 475.263922,79.0205235 C472.489253,82.6598732 467.277162,85.0264186 461.029184,85.857034 Z M441.263681,83.7120549 C438.871137,82.8744268 436.66616,81.8468886 434.676211,80.6416598 C434.787478,81.7611956 434.45709,82.5935463 433.659739,83.1870036 C428.585143,86.9639598 423.3091,94.2158794 419.512953,102.094098 C417.843634,105.558469 416.622979,108.844137 416.057446,111.359798 C415.788507,112.556122 415.679488,113.531829 415.727028,114.212005 C415.731345,114.273769 415.736865,114.331657 415.743398,114.38557 C416.385061,113.752955 417.256831,112.640331 418.463396,110.930027 C418.248311,111.23491 424.933905,101.39762 427.3084,98.1893943 C432.231276,91.5380011 436.746963,86.6904285 441.263681,83.7120549 Z M425.411466,71.1435087 C423.073468,66.7382421 422.224294,61.4940716 423.217389,55.5682743 C411.76299,58.0182726 401.671454,57.4461354 393.439735,54.4722993 C385.335937,65.3929785 377.996311,85.0431431 371.502531,113.365583 C371.567601,116.803274 371.637179,120.203691 371.711259,123.566817 C387.422293,108.062193 405.322318,90.5878044 425.411466,71.1435087 Z M429.960583,77.0739192 C428.870392,76.0419721 427.892287,74.9317369 427.035085,73.7471361 C406.278205,93.8400997 387.868051,111.821258 371.804782,127.690442 C372.417824,153.958171 373.310331,177.90855 374.478394,199.533303 C392.853676,188.419265 405.570373,175.008453 414.656491,158.776075 C418.257203,152.34339 421.239246,145.588746 424.076161,137.778521 C425.187487,134.718964 426.243578,131.600093 427.507018,127.699873 C427.857294,126.618577 429.976207,119.993182 430.581431,118.143772 C434.142212,107.262916 436.833283,100.949911 440.628138,95.6407709 C443.641619,91.4248014 447.218979,88.2368569 451.584141,86.0394933 C449.693425,85.8770432 447.769322,85.5863778 444.914766,85.0371868 C440.139405,87.5181087 435.21459,92.5499764 429.719779,99.9741213 C427.388309,103.124215 420.730672,112.920369 420.914778,112.659399 C419.578863,114.553055 418.608039,115.787931 417.788813,116.581303 C416.470532,117.857981 415.080658,118.35632 413.98112,117.153323 C409.036928,113.272684 420.652055,89.3232292 431.659118,80.9381352 C431.658542,80.9311884 431.6579,80.9239238 431.657182,80.9163417 C431.621409,80.5387204 431.431434,79.9431433 431.075067,79.1676527 C430.795197,78.5586263 430.423563,77.8602391 429.960583,77.0739192 Z M237.276845,139.898215 C236.603495,125.629913 234.696245,112.967087 231.428119,102.109911 C224.282244,81.5460981 200.784009,64.6725934 160.414299,47.3788105 C160.263541,47.314228 160.128799,47.227871 160.012171,47.1249835 C156.976668,50.4017967 152.50517,52.435527 147.159086,53.0316116 C138.17593,54.0332272 128.767871,50.6512078 124.813183,44.5598182 C124.362078,43.8649831 124.559661,42.9360152 125.254496,42.4849102 C125.949331,42.0338053 126.878299,42.2313876 127.329404,42.9262227 C130.596051,47.9578254 138.880817,50.9360423 146.826648,50.0500876 C155.374154,49.0970467 161.035848,44.1371733 161.299498,36.0235516 C161.333078,34.9901349 162.377576,34.2997762 163.341475,34.673911 C170.926932,37.6181859 180.355675,36.5004181 186.123775,32.1090742 C192.325809,27.3873703 193.145127,19.9948293 186.971722,11.1686435 C186.496904,10.4897916 186.662307,9.55455784 187.341158,9.07974033 C188.02001,8.60492282 188.955244,8.77032534 189.430062,9.44917719 C196.49413,19.5487548 195.473046,28.7617957 187.941015,34.4960474 C181.7999,39.171373 172.293127,40.5836149 164.135296,38.1176767 C163.805819,40.6031239 163.016617,42.8136287 161.837642,44.7249478 C202.799421,62.2996833 226.760118,79.5371798 234.281331,101.185136 C237.618455,112.269972 239.568063,125.133895 240.263122,139.588404 C240.556077,140.04436 240.575818,140.620587 240.330631,141.091199 C241.528626,169.760226 237.883183,204.567361 230.408504,244.074805 C229.724601,247.689575 228.732694,250.149733 226.435304,254.69955 C226.297947,254.971473 226.297947,254.971473 226.161276,255.242152 C222.121252,263.248141 221.169328,267.998465 223.168326,277.781254 C225.199971,283.5671 223.804206,292.892819 219.814356,305.56276 C218.802151,308.777059 217.638342,312.154005 216.290496,315.834289 C216.029118,316.547981 209.197427,334.301553 208.769031,336.191537 C207.025363,343.884201 199.364571,352.272615 187.511854,358.947852 C173.93006,366.596874 155.766823,371.625827 134.24539,373.020712 C122.877548,373.757504 111.142076,378.28466 99.0324082,386.633815 C99.5022915,386.309848 94.2190508,390.514393 90.7386558,393.015872 C84.6348108,397.402914 77.7746144,401.670389 70.0268984,405.669931 C49.8335521,416.094182 27.1405688,422.915834 2.09450851,424.49702 C1.26772733,424.549215 0.555175854,423.92129 0.502980247,423.094509 C0.450784639,422.267727 1.07871031,421.555176 1.90549149,421.50298 C26.5125771,419.949508 48.8083862,413.247248 68.6507738,403.00417 C76.2617362,399.075223 82.9982067,394.884714 88.987773,390.579807 C92.3790397,388.142388 97.6933695,383.913102 97.3295328,384.163953 C109.860616,375.524249 122.103412,370.801384 134.051356,370.026993 C155.141092,368.660088 172.86806,363.751928 186.039716,356.333888 C197.221383,350.036574 204.315435,342.268729 205.843249,335.528361 C206.327721,333.390981 213.331903,315.189159 213.473474,314.8026 C214.806555,311.162629 215.955802,307.827937 216.952884,304.661663 C220.769793,292.540904 222.091187,283.630523 220.309114,278.694733 L220.250731,278.487553 C218.072254,267.896646 219.14774,262.481596 223.482967,253.89061 C223.620334,253.618556 223.620334,253.618556 223.757336,253.347334 C225.936798,249.031065 226.842644,246.784359 227.460797,243.517109 C234.706363,205.220642 238.326664,171.381547 237.41719,143.42575 C232.276749,146.481891 224.690642,147.439154 218.199127,145.457676 C209.90337,142.925469 204.424547,136.244173 203.343877,125.907247 C189.689591,140.968282 169.855425,144.119605 151.387357,136.249628 C134.992049,129.262937 123.97888,115.225155 124.315783,101.022959 C117.840434,105.89482 105.431929,105.384134 94.4550951,99.8648474 C80.3610859,92.7782072 74.0051492,80.3635632 80.184902,66.4902325 C59.1709756,71.177628 44.313108,64.6640392 36.5868934,50.3101761 C30.2241354,38.4893606 29.9994208,22.2184878 35.3236684,15.1014612 C35.8199177,14.438115 36.7599555,14.3026562 37.4233017,14.7989055 C38.0866479,15.2951548 38.2221067,16.2351926 37.7258574,16.8985388 C33.1706515,22.9875723 33.3782563,38.0195758 39.2285209,48.8882746 C46.666776,62.7071627 61.2134547,68.5593069 82.6085479,62.8043882 C83.8947496,62.4584216 84.9602537,63.8354699 84.3025097,64.9936497 C76.6980253,78.3839049 82.1046924,90.2970303 95.8027625,97.1845877 C108.050737,103.343019 121.939949,102.60798 125.070006,95.452552 C125.800371,93.7829097 128.315414,94.61497 127.905914,96.390765 C124.610872,110.67968 135.335538,126.148276 152.563442,133.489769 C170.998506,141.345681 190.694721,137.547849 203.462686,121.100472 C204.33892,119.971728 206.147567,120.591353 206.147567,122.020285 C206.147567,133.276755 211.062622,140.142674 219.074958,142.588369 C225.425345,144.526769 233.037885,143.227946 237.276845,139.898215 Z M260.438659,371.863746 C264.791759,366.383333 269.934681,363.588815 275.839386,363.588815 C285.267399,363.588815 288.392366,355.914218 284.976408,339.344107 C284.809144,338.532741 285.331291,337.739405 286.142657,337.57214 C286.954022,337.404876 287.747359,337.927023 287.914623,338.738389 C291.658334,356.898367 287.712547,366.588815 275.839386,366.588815 C271.229503,366.588815 267.118203,368.657641 263.493843,372.861585 C263.56091,373.576131 263.105693,374.256106 262.389245,374.448616 C262.32039,374.467117 262.251607,374.485574 262.182895,374.503985 C261.210008,375.816399 260.274524,377.293927 259.376195,378.937987 L254.248441,389.371561 C247.885273,400.718425 241.616228,408.589082 235.388339,412.985245 C234.711541,413.462985 233.775603,413.301617 233.297863,412.624819 C232.820122,411.948021 232.98149,411.012083 233.658288,410.534342 C239.459079,406.43966 245.467906,398.895703 251.59379,387.976516 L256.713442,377.557579 C257.075994,376.893827 257.445538,376.253315 257.822052,375.636131 C238.301533,380.533327 225.080905,381.445347 217.965608,378.25336 C211.095102,375.171189 198.162884,375.165432 179.31167,378.345868 L135.458621,392.428169 C134.669864,392.681458 133.82512,392.247377 133.571831,391.458621 C133.318542,390.669864 133.752623,389.82512 134.541379,389.571831 L178.496983,375.456597 L178.705438,375.405775 C198.162889,372.114616 211.611083,372.114616 219.193535,375.516173 C225.877301,378.514571 239.702118,377.343785 260.438659,371.863746 Z M320.140044,372.631185 C304.759404,374.11161 294.923048,376.748652 290.776185,380.364582 L275.110279,396.897329 C274.540469,397.498668 273.591066,397.524228 272.989727,396.954418 C272.388388,396.384609 272.362828,395.435205 272.932638,394.833866 L288.645987,378.25105 L288.741787,378.158544 C293.48696,373.967209 303.808264,371.189295 319.852614,369.644986 C334.547821,368.230534 339.534611,357.807384 334.847765,337.375843 C334.662541,336.568388 335.166959,335.763662 335.974414,335.578438 C336.781869,335.393214 337.586594,335.897632 337.771818,336.705086 C342.818786,358.706518 336.929934,371.015115 320.140044,372.631185 Z M238.150728,354.999769 C241.689505,350.126398 242.575482,347.152338 241.53444,346.1227 C238.912953,343.529928 240.833799,338.578726 246.571547,330.788677 C247.062842,330.121653 248.001845,329.979197 248.668869,330.470492 C249.335892,330.961787 249.478349,331.90079 248.987053,332.567814 C244.207373,339.05711 242.668181,343.024554 243.644046,343.989729 C246.200357,346.518038 244.936494,350.76059 240.578237,356.762494 C240.091474,357.432832 239.153458,357.581649 238.48312,357.094886 C237.812782,356.608123 237.663965,355.670107 238.150728,354.999769 Z M306.554143,292.745582 C306.851436,291.972336 307.719278,291.5865 308.492524,291.883793 C309.265769,292.181086 309.651605,293.048928 309.354312,293.822174 C307.187857,299.457031 309.964043,303.395542 318.438386,306.0842 C326.376342,308.602679 329.582477,311.948194 331.125085,317.51632 C331.262854,318.013604 331.345416,318.34246 331.578326,319.29844 C332.131462,321.568789 332.46122,322.569872 333.109327,323.653288 C333.534611,324.36422 333.303048,325.285306 332.592116,325.710591 C331.881184,326.135875 330.960098,325.904312 330.534813,325.19338 C329.683774,323.770729 329.285893,322.562838 328.663585,320.008571 C328.438563,319.084964 328.36027,318.773114 328.233984,318.317278 C326.961327,313.723558 324.499329,311.154529 317.531142,308.94373 C307.583762,305.78772 303.672924,300.239506 306.554143,292.745582 Z M266.699829,107.787487 C265.648861,101.969108 264.058327,99.201496 262.368245,99.0874643 C258.692817,98.8394794 256.415503,94.0335794 254.819681,84.8228708 C254.678257,84.0066045 255.225325,83.230243 256.041591,83.088819 C256.857858,82.947395 257.634219,83.4944628 257.775643,84.3107291 C259.126763,92.1090742 260.963821,95.9858856 262.570199,96.0942696 C266.161921,96.3366069 268.375867,100.188989 269.652055,107.254229 C269.79931,108.069464 269.257805,108.849716 268.442571,108.996971 C267.627336,109.144226 266.847084,108.602721 266.699829,107.787487 Z M392.94648,160.784996 C398.379035,155.02864 400.535829,150.960937 399.753916,148.933361 C398.367373,145.337921 401.865085,139.615143 410.023245,131.070423 C410.595321,130.47124 411.544814,130.449265 412.143997,131.021342 C412.74318,131.593418 412.765155,132.542911 412.193078,133.142094 C404.931694,140.747547 401.792934,145.883026 402.552991,147.853927 C403.917678,151.392693 401.330422,156.272248 395.128277,162.844065 C394.559681,163.446551 393.610331,163.474025 393.007844,162.905429 C392.405358,162.336833 392.377884,161.387483 392.94648,160.784996 Z M255.535447,286.511529 C255.515466,282.412874 255.368956,279.631981 255.110798,278.240324 C254.959698,277.425793 255.497516,276.642995 256.312047,276.491896 C257.126578,276.340797 257.909376,276.878614 258.060475,277.693145 C258.361235,279.314455 258.514587,282.225216 258.535411,286.496905 C258.53945,287.325322 257.871159,288.000161 257.042741,288.004199 C256.214324,288.008238 255.539485,287.339947 255.535447,286.511529 Z M300.063434,80.2181464 C302.287284,76.6557034 303.68143,74.176729 304.21968,72.8492762 C304.53097,72.081559 305.405679,71.711552 306.173396,72.0228426 C306.941113,72.3341331 307.31112,73.2088417 306.99983,73.9765589 C306.376346,75.5142193 304.92123,78.1016045 302.608289,81.8067674 C302.169603,82.5095095 301.244293,82.7235696 300.541551,82.2848841 C299.838809,81.8461985 299.624749,80.9208885 300.063434,80.2181464 Z M435.165272,390.509102 C435.988672,390.600227 436.582299,391.341596 436.491174,392.164996 C436.400049,392.988397 435.658679,393.582023 434.835279,393.490898 L403.067714,389.975207 C402.804571,389.946085 402.553823,389.847836 402.340942,389.690439 C388.871864,379.731892 379.747515,376.371233 375.244186,379.160034 C369.471408,382.734975 358.624687,381.395344 342.478619,375.406369 C341.701903,375.118266 341.305804,374.255059 341.593907,373.478343 C341.88201,372.701627 342.745217,372.305528 343.521933,372.593631 C358.835582,378.273841 368.958307,379.524055 373.664702,376.609499 C379.595414,372.936754 389.549965,376.558953 403.798434,387.037753 L435.165272,390.509102 Z M192.448155,43.7842524 C191.677828,43.479477 191.300424,42.6079344 191.6052,41.8376076 C191.909975,41.0672807 192.781518,40.6898768 193.551845,40.9946522 C221.553974,52.0735353 240.757334,55.7586753 250.930655,52.1864709 C260.537615,48.8131354 262.172242,38.5187449 255.360392,20.5312314 C255.067001,19.7564971 255.457207,18.8906104 256.231941,18.5972195 C257.006675,18.3038285 257.872562,18.6940343 258.165953,19.4687686 C265.494411,38.8204471 263.571997,50.9272279 251.924566,55.0170432 C240.843497,58.9079895 221.095116,55.1182597 192.448155,43.7842524 Z M515.67466,47.2770844 C507.320898,50.7647697 496.293841,50.0321082 489.04827,45.4269174 C487.717319,52.9195428 482.007034,57.597946 473.680064,59.1549686 C465.971941,60.596276 456.807025,59.0613547 451.539446,55.5902057 C450.847704,55.134372 450.656463,54.204078 451.112296,53.5123359 C451.56813,52.8205938 452.498424,52.6293522 453.190166,53.0851859 C457.777034,56.1077705 466.152621,57.5104966 473.128665,56.2060776 C481.147289,54.7067111 486.056334,50.1348338 486.333125,42.6183013 C486.379284,41.364818 487.852041,40.7182628 488.806026,41.532673 C494.939959,46.769169 506.264169,47.9549919 514.518851,44.5086722 C523.324004,40.8325314 525.780647,33.3933442 519.339518,23.509904 C518.887201,22.8158571 519.083162,21.8865458 519.777209,21.4342291 C520.471256,20.9819124 521.400567,21.1778734 521.852884,21.8719202 C529.333534,33.3504291 526.183378,42.8897071 515.67466,47.2770844 Z M275.67235,21.6981016 C275.286799,20.9648608 275.568658,20.057901 276.301898,19.6723501 C277.035139,19.2867993 277.942099,19.5686576 278.32765,20.3018984 C292.47627,47.2097482 303.826834,47.2097482 314.60861,20.4396124 C314.918104,19.671169 315.791944,19.2991166 316.560388,19.6086102 C317.328831,19.9181037 317.700883,20.7919443 317.39139,21.5603876 C305.618949,50.7902518 290.969513,50.7902518 275.67235,21.6981016 Z M320.631282,14.6136863 C320.292352,13.8577642 320.630392,12.9702115 321.386314,12.6312819 C322.142236,12.2923524 323.029788,12.6303916 323.368718,13.3863137 C332.64027,34.0648602 346.449756,36.0151598 366.02311,19.2170222 C366.651766,18.6775007 367.59876,18.7497583 368.138282,19.378414 C368.677803,20.0070697 368.605546,20.9540645 367.97689,21.493586 C346.966111,39.5253431 330.775596,37.2387733 320.631282,14.6136863 Z" id="Combined-Shape" fill="#E66E50" fill-rule="nonzero"></path>
                <g id="Heart" transform="translate(245.000000, 133.000000)">
                    <path d="M59.9766084,10.3589748 C57.7788603,8.56000934 56.5763883,7.65236749 54.6559615,6.43552633 C48.2020562,2.34613439 40.6214041,0 31.1555674,0 C20.5593398,0 12.2191866,4.74734334 6.65412127,12.7721336 C2.3565131,18.9692584 0,26.8928646 0,33.4701646 C0,45.6541418 1.22384087,51.3739329 7.20874786,61.0661743 C8.15717464,62.6021015 9.22253405,64.2043031 10.4164778,65.8899716 C11.2077863,67.0071799 15.7888243,75.0389117 17.5222553,77.6142139 C21.398945,83.373686 25.694181,87.7087452 31.237862,90.7481158 C33.6537538,92.0726492 36.090681,93.8355407 39.1058031,96.3718419 C40.6750691,97.6918984 46.3493204,102.714213 47.2977451,103.531233 C50.8951495,106.630218 53.9472974,109.01188 57.2233222,111.17342 L59.6388775,112.767217 L62.2241128,111.466581 C72.2690039,106.412978 78.6061815,101.728235 85.2808451,95.1080787 C86.1215613,94.2742281 86.8968338,93.4862919 88.1269709,92.2223949 C90.5036778,89.7804616 90.9923211,89.2827395 92.0900328,88.2039268 C93.7197529,86.6022652 95.1762107,84.9226299 96.5633867,83.0838749 C98.0063575,81.1711618 98.7741168,80.0022842 101.100201,76.3114226 C104.426807,71.0330043 106.281975,68.6600261 109.47867,66.0876499 C115.140156,61.5318586 118.186103,55.4998684 119.369816,48.1338606 C119.954034,44.498388 120.049719,41.5710743 119.976545,35.9508424 C119.958808,34.5885762 119.953937,34.1095508 119.953937,33.4701646 C119.953937,26.8926023 117.597272,18.9690059 113.29917,12.771905 C107.733482,4.74717065 99.3922742,0 88.7944717,0 C79.3285042,0 71.748393,2.34621704 65.2956096,6.43579039 C63.3756535,7.65259886 62.173472,8.56023866 59.9766084,10.3589748 Z M59.9769683,16.3181082 C62.3846733,16.3181082 69.2840008,5 88.7944717,5 C108.304943,5 114.953937,23.8338128 114.953937,33.4701646 C114.953937,41.7261774 116.150705,54.3008436 106.344046,62.1922506 C97.8840497,69 96.3971006,76.9605512 88.5853305,84.6378279 C81.0314988,92.0616072 75.9794457,98.9491255 59.9769683,107 C49.5175438,100.098813 42.4736858,91.2060874 33.6415918,86.3638162 C22.7844936,80.4113191 18.5819723,68.7678142 14.4966817,63 C13.3534349,61.3859079 12.3477289,59.8719063 11.4630277,58.4391793 C5.17954281,48.2634067 5,42.1874406 5,33.4701646 C5,23.8338128 11.6489939,5 31.1555674,5 C50.6660384,5 57.5692633,16.3181082 59.9769683,16.3181082 Z" id="Mask-Copy" fill="#E66E50" fill-rule="nonzero"></path>
                    <path d="M59.9769683,16.3181082 C57.5692633,16.3181082 50.6660384,5 31.1555674,5 C11.6489939,5 5,23.8338128 5,33.4701646 C5,42.1874406 5.17954281,48.2634067 11.4630277,58.4391793 C12.3477289,59.8719063 13.3534349,61.3859079 14.4966817,63 C18.5819723,68.7678142 22.7844936,80.4113191 33.6415918,86.3638162 C42.4736858,91.2060874 49.5175438,100.098813 59.9769683,107 C75.9794457,98.9491255 81.0314988,92.0616072 88.5853305,84.6378279 C96.3971006,76.9605512 97.8840497,69 106.344046,62.1922506 C116.150705,54.3008436 114.953937,41.7261774 114.953937,33.4701646 C114.953937,23.8338128 108.304943,5 88.7944717,5 C69.2840008,5 62.3846733,16.3181082 59.9769683,16.3181082 Z" id="Mask-Copy" fill="#E66E50"></path>
                    <path d="M59.9769683,15.3181082 C60.2037688,15.3181082 65.0793815,11.308503 67.4368681,9.81440134 C73.2686412,6.11840499 80.1127418,4 88.7944717,4 C98.024896,4 105.16621,8.06428406 110.012339,15.0515413 C113.834386,20.5622558 115.953937,27.6886247 115.953937,33.4701646 C115.953937,34.1335452 115.958903,34.6219083 115.976884,36.0029176 C116.047148,41.3996131 115.956874,44.1613627 115.420485,47.4992057 C114.38291,53.9558248 111.787608,59.0953881 106.970971,62.9713304 C103.343275,65.8905333 101.261171,68.5537891 97.7161825,74.1787199 C95.4535917,77.7688352 94.7204501,78.8850089 93.3701595,80.6748709 C92.0973883,82.361978 90.7694279,83.8934259 89.286271,85.3510477 C88.158542,86.4593608 87.6614489,86.9656897 85.2605201,89.4325096 C84.0455955,90.6807766 83.2839683,91.4548446 82.4640379,92.2680792 C76.0771061,98.6028531 70.0784245,103.037364 60.4263972,107.893316 L59.9093501,108.153443 L59.4262391,107.834684 C56.3131573,105.780655 53.3872858,103.497529 49.9084274,100.500666 C48.9956467,99.7143511 43.2967435,94.6702171 41.6807129,93.3108225 C38.480719,90.6190083 35.8448702,88.7122155 33.1608459,87.2406761 C28.2479145,84.5471195 24.3889689,80.6523957 20.8405737,75.38066 C19.2278174,72.9846402 14.6149336,64.8970747 13.6806409,63.5779943 C12.53383,61.9588702 11.514857,60.4264295 10.6121718,58.9645783 C5.07425939,49.9962211 4,44.9755199 4,33.4701646 C4,27.6888239 6.11943562,20.5623737 9.94107916,15.051587 C14.7866289,8.06433383 21.9268681,4 31.1555674,4 C39.8372712,4 46.6820478,6.11838846 52.5150364,9.81434853 C54.8729511,11.3083955 59.7500754,15.3181082 59.9769683,15.3181082 Z M51.2137686,98.9853826 C54.4517029,101.774701 57.1903746,103.925705 60.0458937,105.844499 C69.1978244,101.190314 74.9274549,96.926214 81.0556344,90.8480794 C81.8651718,90.0451529 82.6199763,89.278019 83.8272947,88.037567 C86.2403344,85.5583038 86.7416524,85.0476715 87.8843901,83.9246081 C89.2942654,82.5390062 90.557977,81.0816521 91.7735459,79.4703689 C93.0774964,77.7419325 93.7933292,76.6521107 96.0241734,73.1123686 C99.6783526,67.3141815 101.873924,64.5057869 105.717121,61.4131707 C110.111334,57.8771529 112.481314,53.183803 113.44582,47.1818782 C113.958294,43.99285 114.045862,41.3138825 113.977053,36.0289552 C113.95895,34.6385744 113.953937,34.1455424 113.953937,33.4701646 C113.953937,28.086636 111.952943,21.3588808 108.368923,16.1913594 C103.882574,9.72284077 97.341207,6 88.7944717,6 C80.5048606,6 74.0287653,8.00449896 68.5074974,11.5037068 C66.7436936,12.6215508 65.6622936,13.450841 63.3869717,15.3220196 C61.4391242,16.9238899 60.8567575,17.3181082 59.9769683,17.3181082 C59.0972488,17.3181082 58.5147954,16.9239231 56.5664631,15.3221078 C54.290482,13.4509169 53.208784,12.6216173 51.4445738,11.5037596 C45.9220436,8.00451549 39.4452047,6 31.1555674,6 C22.6106322,6 16.0703501,9.72282907 11.5845581,16.1913137 C8.00089688,21.3589314 6,28.0868035 6,33.4701646 C6,44.636209 6.99946865,49.3073653 12.3138837,57.9137803 C13.1936982,59.3385934 14.1894779,60.8361538 15.3127225,62.4220057 C16.3185073,63.8420221 20.9473139,71.9575045 22.4997329,74.2638831 C25.8839809,79.2917505 29.5247813,82.9663066 34.1223378,85.4869563 C36.9404284,87.0319986 39.6757379,89.0107422 42.9681677,91.7803129 C44.6075807,93.1593765 50.3188098,98.2144202 51.2137686,98.9853826 Z M29.397146,10.5864037 C29.9438564,10.5081334 30.4505033,10.8878791 30.5287736,11.4345894 C30.6070439,11.9812998 30.2272982,12.4879467 29.6805878,12.566217 C22.3490664,13.615841 17.1264408,17.6115245 14.9771574,24.6782814 C14.8164537,25.2066684 14.2578354,25.5047346 13.7294485,25.344031 C13.2010615,25.1833274 12.9029953,24.6247091 13.0636989,24.0963221 C15.4526349,16.2415972 21.335864,11.7405045 29.397146,10.5864037 Z M101.942258,57.4818502 C101.516326,57.8334191 100.886038,57.7731362 100.534469,57.3472046 C100.1829,56.921273 100.243183,56.2909843 100.669114,55.9394153 C103.618299,53.5051236 105.626906,50.2676227 106.456665,46.3200152 C106.943362,44.0045373 107.022187,41.4585066 106.663306,38.6900897 C106.592306,38.1423878 106.978748,37.6408303 107.52645,37.5698296 C108.074152,37.498829 108.57571,37.8852716 108.64671,38.4329735 C109.033788,41.4189091 108.947981,44.1904838 108.413896,46.7314111 C107.48919,51.1307353 105.235111,54.7638906 101.942258,57.4818502 Z" id="Combined-Shape" fill="#F5F8FA" fill-rule="nonzero"></path>
                    <path d="M66.875,51.5019808 C66.875,51.8296553 66.7657451,52.0702877 66.5472321,52.2238851 C66.328719,52.3774825 65.9711576,52.5054785 65.474537,52.6078768 C64.3422422,52.833153 63.0411158,53.0277068 61.571119,53.1915441 C61.5512542,53.5192186 61.5413219,53.980004 61.5413219,54.5739141 C61.5413219,55.6593359 61.5711187,56.4836298 61.6307132,57.0468203 C61.6903076,57.6100109 61.779698,58.2090319 61.8988869,58.8439013 C61.9783462,59.2125351 62.0180753,59.4480477 62.0180753,59.550446 C62.0180753,59.6938036 61.9386172,59.80644 61.7796986,59.8883586 C61.62078,59.9702773 61.432067,60.011236 61.213554,60.011236 C60.7566631,60.011236 60.4686275,59.6118886 60.3494385,58.813182 C60.2302496,58.0144753 60.170656,57.2260203 60.170656,56.4477934 L60.170656,53.3758601 C57.8862015,53.621616 56.2473782,53.7444921 55.2541371,53.7444921 C55.0157592,53.7444921 54.7922834,53.6779342 54.5837027,53.5448164 C54.3751221,53.4116986 54.2708333,53.2529837 54.2708333,53.0686667 C54.2708333,52.8024312 54.3602237,52.6283567 54.5390071,52.5464381 C54.7177905,52.4645195 55.0157584,52.4235608 55.4329196,52.4235608 C56.5453497,52.4235608 58.1345116,52.290445 60.2004531,52.0242094 L60.2004531,50.2732075 C60.2004531,49.4745008 60.2252838,48.55293 60.2749458,47.5084675 C60.3246079,46.464005 60.3693031,45.8086658 60.4090327,45.5424302 C60.4487623,45.255715 60.6275431,45.1123596 60.9453802,45.1123596 C61.302947,45.1123596 61.5413213,45.2761944 61.6605102,45.6038689 C61.7796992,45.9315434 61.8392928,46.2796924 61.8392928,46.6483262 C61.8392928,47.0579193 61.7995637,48.0614075 61.7201044,49.6588208 C61.6803748,50.1298529 61.6406457,50.8568699 61.6009161,51.8398934 C63.0113185,51.5941375 64.1833254,51.3483853 65.116972,51.1026294 C65.2758906,51.0616701 65.4099761,50.9234345 65.5192327,50.6879185 C65.6284892,50.4524024 65.7427102,50.3346461 65.8618991,50.3346461 C66.0804122,50.3346461 66.3038881,50.4626421 66.5323335,50.7186378 C66.760779,50.9746335 66.875,51.2357452 66.875,51.5019808 Z" id="+" stroke="#FFFFFF" fill="#FFFFFF" fill-rule="nonzero"></path>
                    <path d="M36.5532692,77.2910511 C36.5532692,76.798435 36.6224554,76.2623609 36.7608301,75.6828125 C36.8992047,75.1032641 37.092198,74.5201024 37.3398158,73.9333097 C37.5874335,73.346517 37.8860269,72.7742215 38.235605,72.2164063 C38.585183,71.658591 38.9784524,71.1659823 39.4154249,70.7385653 C39.8523974,70.3111484 40.3257772,69.9706689 40.8355785,69.7171165 C41.3453798,69.4635641 41.8843045,69.3367898 42.4523687,69.3367898 C42.9184728,69.3367898 43.3554387,69.3983659 43.7632798,69.5215199 C44.1711208,69.6446739 44.5206936,69.8294022 44.8120086,70.0757102 C45.1033236,70.3220183 45.3327307,70.6298987 45.5002369,70.9993608 C45.667743,71.3688229 45.7514948,71.8070997 45.7514948,72.3142045 C45.4310483,72.3142045 45.1725101,72.2308957 44.9758724,72.0642756 C44.7792348,71.8976554 44.5971657,71.7129272 44.4296595,71.5100852 C44.2621534,71.3072433 44.0800842,71.1261372 43.8834466,70.9667614 C43.686809,70.8073856 43.4355535,70.7276989 43.1296728,70.7276989 C42.6781345,70.7276989 42.2448099,70.8436068 41.829686,71.0754261 C41.4145621,71.3072455 41.0285755,71.618748 40.6717146,72.0099432 C40.3148537,72.4011383 40.0016948,72.8430373 39.7322284,73.3356534 C39.462762,73.8282695 39.2297135,74.3245003 39.0330758,74.8243608 C38.8364382,75.3242212 38.6835001,75.8132078 38.574257,76.2913352 C38.4650138,76.7694626 38.4103931,77.1823846 38.4103931,77.5301136 C38.4103931,78.2835265 38.523276,78.9898405 38.7490451,79.6490767 C38.9748143,80.308313 39.2988973,80.8806084 39.7213041,81.3659801 C40.1437109,81.8513519 40.6680701,82.2316748 41.2943973,82.5069602 C41.9207246,82.7822443 42.6344357,82.9198864 43.435552,82.9198864 C43.9453533,82.9198864 44.4296572,82.8438218 44.8884784,82.6916903 C45.3472995,82.5395589 45.7915483,82.3729412 46.2212379,82.1918324 C46.6509276,82.0107235 47.0769694,81.8404838 47.4993762,81.681108 C47.9217829,81.5217322 48.3441834,81.4420455 48.7665901,81.4420455 C48.8248531,81.4420455 48.908605,81.4456676 49.0178481,81.4529119 C49.1270912,81.4601563 49.2290499,81.4782669 49.3237273,81.5072443 C49.4184047,81.5362217 49.5021565,81.5833093 49.5749853,81.6485085 C49.647814,81.7137077 49.6842278,81.811505 49.6842278,81.9419034 C49.6842278,82.4634969 49.4839518,82.9053959 49.0833936,83.2676136 C48.6828355,83.6298314 48.2058115,83.9232233 47.6523158,84.1477983 C47.0988172,84.3723733 46.5234787,84.5353688 45.9262829,84.6367898 C45.3290872,84.7382107 44.8411418,84.7889205 44.4624323,84.7889205 C43.3554352,84.7889205 42.3212824,84.6114364 41.3599429,84.2564631 C40.3986033,83.9014897 39.5610852,83.3980146 38.8473634,82.7460227 C38.1336417,82.0940308 37.5728687,81.3080302 37.1650276,80.3879972 C36.7571866,79.4679641 36.5532692,78.4356591 36.5532692,77.2910511 Z M50.1211982,69.4019886 C50.1211982,69.286079 50.1248396,69.0941065 50.1321224,68.8260653 C50.1394053,68.5580242 50.1430467,68.2754986 50.1430467,67.9784801 C50.1430467,67.6814616 50.1466881,67.398936 50.153971,67.1308949 C50.1612538,66.8628538 50.1648952,66.6781255 50.1648952,66.5767045 C50.3251185,66.2724417 50.5763739,66.0514922 50.9186691,65.9138494 C51.2609642,65.7762067 51.6323853,65.6820315 52.0329434,65.631321 C52.4335016,65.5806105 52.8267709,65.5624999 53.2127633,65.5769886 C53.5987557,65.5914773 53.9155561,65.5987216 54.1631738,65.5987216 C54.4836203,65.5987216 54.8586828,65.6132101 55.2883724,65.6421875 C55.7180621,65.6711649 56.1477453,65.7254968 56.5774349,65.8051847 C57.0071246,65.8848726 57.4331664,66.0007805 57.8555732,66.1529119 C58.27798,66.3050434 58.6530424,66.500638 58.9807718,66.7397017 C59.3085012,66.9787654 59.5706808,67.2685352 59.7673184,67.6090199 C59.9639561,67.9495045 60.0622734,68.3515602 60.0622734,68.8151989 C60.0622734,69.3657698 59.9311836,69.8620006 59.6690001,70.3039063 C59.4068166,70.7458119 59.0827335,71.1587339 58.6967411,71.5426847 C58.3107487,71.9266354 57.8883483,72.2852256 57.4295271,72.6184659 C56.970706,72.9517062 56.5483055,73.2776973 56.1623131,73.5964489 C55.7763207,73.9152005 55.4522376,74.2411915 55.1900541,74.5744318 C54.9278706,74.9076721 54.7967808,75.2698844 54.7967808,75.6610795 C54.7967808,75.690057 54.807705,75.7299003 54.8295536,75.7806108 C54.8514022,75.8313213 54.8623264,75.8639204 54.8623264,75.8784091 C56.581085,76.3855139 58.2524798,77.0012748 59.876561,77.7257102 C61.5006422,78.4501457 63.0992094,79.2325242 64.6723105,80.0728693 C64.7160077,80.1018467 64.7633457,80.1561786 64.8143258,80.2358665 C64.865306,80.3155544 64.9126439,80.4097296 64.9563412,80.5183949 C65.0000384,80.6270602 65.043735,80.7248575 65.0874323,80.8117898 C65.1311296,80.898722 65.1529778,80.9711645 65.1529778,81.0291193 C65.1529778,81.1595177 65.116564,81.257315 65.0437353,81.3225142 C64.9709065,81.3877134 64.8835133,81.4384231 64.7815531,81.4746449 C64.6795928,81.5108667 64.5776341,81.5289773 64.4756738,81.5289773 L64.2134916,81.5289773 C63.4269411,81.5289773 62.6440437,81.3587375 61.864776,81.0182528 C61.0855084,80.6777682 60.302611,80.2974453 59.5160605,79.8772727 C58.7295099,79.4571002 57.932047,79.0731551 57.1236479,78.7254261 C56.3152487,78.3776971 55.4740892,78.2038352 54.6001442,78.2038352 L53.9009916,78.2038352 C54.1340436,78.7399175 54.3416025,79.2180377 54.5236744,79.6382102 C54.7057462,80.0583828 54.8586843,80.4640605 54.9824932,80.8552557 C55.1063021,81.2464508 55.2009781,81.6412622 55.2665239,82.0397017 C55.3320698,82.4381412 55.3648423,82.8691738 55.3648423,83.3328125 L55.3648423,83.6914062 C55.3648423,83.829049 55.3575595,83.9703118 55.3429937,84.1151989 C55.328428,84.260086 55.2847314,84.3904824 55.2119026,84.506392 C55.1390739,84.6223017 55.0225496,84.7019884 54.8623264,84.7454545 C54.2651306,84.3977255 53.7298473,83.8580292 53.2564604,83.1263494 C52.7830735,82.3946696 52.3715972,81.5579593 52.0220192,80.6161932 C51.6724411,79.6744271 51.3774891,78.6747212 51.1371542,77.6170455 C50.8968193,76.5593697 50.7001847,75.5198204 50.5472443,74.4983665 C50.3943039,73.4769125 50.2850624,72.5206721 50.2195165,71.6296165 C50.1539706,70.7385609 50.1211982,69.9960257 50.1211982,69.4019886 Z M52.0001706,70.7711648 C52.0001706,70.959518 51.9892465,71.2022002 51.9673979,71.4992188 C51.9455492,71.7962373 51.9419079,72.1004956 51.9564736,72.4120028 C51.9710394,72.7235101 52.0183773,73.0205242 52.098489,73.303054 C52.1786006,73.5855838 52.3133318,73.828266 52.5026865,74.031108 C52.531818,74.0455967 52.5609491,74.0528409 52.5900806,74.0528409 C52.6046464,74.0673296 52.6410602,74.0745739 52.6993232,74.0745739 C52.9615067,74.0745739 53.278307,73.9948872 53.6497337,73.8355114 C54.0211603,73.6761356 54.4107883,73.4660524 54.8186293,73.2052557 C55.2264704,72.9444589 55.6306639,72.6438227 56.031222,72.3033381 C56.4317802,71.9628534 56.7922771,71.6115075 57.1127236,71.2492898 C57.4331701,70.8870721 57.6917083,70.5212376 57.888346,70.1517756 C58.0849836,69.7823135 58.1833009,69.4454561 58.1833009,69.1411932 C58.1833009,68.851419 58.0740594,68.6014925 57.8555732,68.3914063 C57.6370869,68.18132 57.3749073,68.0110802 57.0690266,67.8806818 C56.7631458,67.7502834 56.4463455,67.6561082 56.1186161,67.5981534 C55.7908867,67.5401986 55.5250657,67.5112216 55.3211452,67.5112216 C55.0735275,67.5112216 54.7822168,67.5075995 54.4472045,67.5003551 C54.1121923,67.4931108 53.7808264,67.5148435 53.453097,67.565554 C53.1253676,67.6162645 52.8304156,67.7068175 52.5682321,67.8372159 C52.3060486,67.9676143 52.1239794,68.1632089 52.0220192,68.4240057 L52.0220192,69.5867188 C52.0220192,69.8402712 52.0183778,70.0757091 52.0110949,70.2930398 C52.003812,70.5103704 52.0001706,70.6697438 52.0001706,70.7711648 Z M66.0269185,75.44375 C66.0269185,75.2698855 66.0305599,74.9837378 66.0378428,74.5852983 C66.0451257,74.1868588 66.048767,73.7666926 66.048767,73.3247869 C66.048767,72.8828813 66.0524084,72.4663372 66.0596913,72.075142 C66.0669742,71.6839469 66.0706156,71.4086656 66.0706156,71.2492898 C66.0851813,71.1478688 66.1215951,70.9921175 66.1798581,70.7820313 C66.2381211,70.571945 66.3073074,70.365484 66.3874191,70.162642 C66.4675307,69.9598001 66.5767722,69.7823161 66.7151468,69.6301847 C66.8535214,69.4780532 67.0246664,69.4019886 67.228587,69.4019886 C67.7092567,69.4019886 68.1607882,69.5323851 68.583195,69.7931818 C69.0056018,70.0539786 69.4134367,70.3980802 69.806712,70.8254972 C70.1999872,71.2529141 70.5750497,71.7274122 70.9319106,72.2490057 C71.2887715,72.7705992 71.6419856,73.2885628 71.9915637,73.8029119 C72.3411417,74.3172611 72.6834317,74.8026256 73.018444,75.2590199 C73.3534562,75.7154142 73.6884635,76.0812486 74.0234757,76.3565341 C74.3876195,76.1971583 74.6716474,75.9037663 74.8755679,75.4763494 C75.0794884,75.0489325 75.246992,74.5563238 75.3780838,73.9985085 C75.5091755,73.4406932 75.6293412,72.8611536 75.7385843,72.2598722 C75.8478274,71.6585907 75.9971241,71.1044059 76.1864789,70.5973011 C76.3758337,70.0901963 76.6270891,69.6736522 76.9402527,69.3476563 C77.2534164,69.0216603 77.686741,68.8586648 78.2402395,68.8586648 C78.8956983,68.8586648 79.4892437,69.1122134 80.0208936,69.6193182 C80.5525435,70.126423 81.0295647,70.7711609 81.4519715,71.5535511 C81.8743762,72.3359414 82.2348752,73.2052509 82.5334731,74.1615057 C82.832071,75.1177605 83.0833264,76.0377797 83.2872469,76.9215909 C83.4911674,77.8054021 83.6441055,78.6022692 83.7460658,79.3122159 C83.848026,80.0221626 83.8990054,80.5292598 83.8990054,80.8335227 C83.8990054,80.9639211 83.8917226,81.1051839 83.8771569,81.2573153 C83.8625911,81.4094468 83.8261773,81.5470875 83.7679143,81.6702415 C83.7096513,81.7933955 83.6149753,81.8875707 83.4838836,81.9527699 C83.3527918,82.0179691 83.1634399,82.014347 82.9158221,81.9419034 C82.8429934,81.9274147 82.7592416,81.8875713 82.6645642,81.8223722 C82.5698868,81.757173 82.4715695,81.6738641 82.3696092,81.5724432 C82.2676489,81.4710222 82.1802558,81.3732249 82.107427,81.2790483 C82.0345982,81.1848717 81.9981844,81.1015629 81.9981844,81.0291193 C81.8670927,80.3191726 81.7214373,79.5295498 81.5612141,78.6602273 C81.4009908,77.7909047 81.2007147,76.9107289 80.9603799,76.0196733 C80.720045,75.1286177 80.4178102,74.2629303 80.0536664,73.4225852 C79.6895226,72.5822401 79.2379911,71.8578155 78.6990584,71.2492898 C78.2766516,71.4811091 77.9452857,71.832455 77.7049508,72.3033381 C77.4646159,72.7742211 77.2643399,73.2885626 77.1041166,73.8463778 C76.9438934,74.4041931 76.798238,74.9728664 76.6671463,75.5524148 C76.5360545,76.1319631 76.3612681,76.6571709 76.1427819,77.128054 C75.9242956,77.598937 75.6475505,77.9865042 75.3125382,78.290767 C74.977526,78.5950284 74.5259945,78.7471591 73.9579302,78.7471591 C73.5646549,78.7471591 73.1823097,78.6203848 72.810883,78.3668324 C72.4394564,78.11328 72.0789595,77.7800447 71.7293815,77.3671165 C71.3798034,76.9541883 71.0411548,76.4978008 70.7134254,75.9979403 C70.385696,75.4980799 70.0652543,75.0054712 69.7520907,74.5200994 C69.438927,74.0347277 69.1330508,73.5819623 68.834453,73.1617898 C68.5358551,72.7416172 68.2336203,72.4083819 67.9277395,72.1620739 C67.8112135,72.6112238 67.7201789,73.0060352 67.654633,73.3465199 C67.5890872,73.6870045 67.5381078,74.0166177 67.5016934,74.3353693 C67.465279,74.6541209 67.4434307,74.980112 67.4361479,75.3133523 C67.428865,75.6465926 67.4252236,76.0160491 67.4252236,76.421733 C67.4252236,77.0302587 67.476203,77.6351532 67.5781632,78.2364347 C67.6801235,78.8377161 67.789365,79.4353663 67.905891,80.0294034 C68.022417,80.6234405 68.1352999,81.2210907 68.244543,81.8223722 C68.3537861,82.4236536 68.4084069,83.0285481 68.4084069,83.6370739 L68.4084069,83.8109375 C68.3792754,83.8544036 68.3210132,83.923224 68.2336187,84.0174006 C68.1462242,84.1115772 68.0551897,84.2093745 67.9605123,84.3107955 C67.8658349,84.4122164 67.7675176,84.5027695 67.6655573,84.5824574 C67.563597,84.6621453 67.4907694,84.7164771 67.4470721,84.7454545 C67.4325064,84.7599433 67.4033753,84.7671875 67.3596781,84.7671875 C67.3159808,84.7816762 67.2722842,84.7889205 67.228587,84.7889205 C67.1994555,84.7889205 67.1630416,84.7816762 67.1193444,84.7671875 C67.0756471,84.7526988 67.0392333,84.7454545 67.0101018,84.7454545 C66.9081415,83.9051094 66.7989,83.1082424 66.682374,82.3548295 C66.565848,81.6014167 66.4602479,80.8552594 66.3655705,80.1163352 C66.2708932,79.3774111 66.1907827,78.6312538 66.1252369,77.8778409 C66.059691,77.1244281 66.0269185,76.3130725 66.0269185,75.44375 Z" id="CRM" fill="#FFFFFF" fill-rule="nonzero" transform="translate(60.226137, 75.180540) rotate(6.000000) translate(-60.226137, -75.180540) "></path>
                    <path d="M33.9746606,21.7479914 C33.9012941,21.7479914 33.7949142,21.729863 33.6555177,21.6936056 C33.5161212,21.6573483 33.3730585,21.6138402 33.2263254,21.5630799 C33.0795923,21.5123196 32.9401979,21.4615601 32.808138,21.4107998 C32.6760782,21.3600395 32.5880397,21.3201571 32.5440197,21.2911512 C32.5293464,21.2621453 32.5220099,21.2331399 32.5220099,21.204134 C32.5073365,21.1751282 32.5,21.1388714 32.5,21.0953626 C32.5,20.8923215 32.580702,20.7182889 32.7421085,20.5732595 C32.9035149,20.4282302 33.0905969,20.3085827 33.3033599,20.2143137 C33.516123,20.1200446 33.7252145,20.047531 33.9306409,19.9967707 C34.1360673,19.9460105 34.2974713,19.9133793 34.4148579,19.8988764 L34.8990748,19.8988764 C35.2512343,19.9278823 35.6987637,19.9713904 36.2416763,20.0294022 C36.7845889,20.0874139 37.3605078,20.1490505 37.9694503,20.2143137 C38.5783928,20.2795769 39.1946628,20.3448391 39.8182786,20.4101023 C40.4418944,20.4753655 41.0068085,20.5406277 41.5130378,20.605891 C42.0192672,20.6711542 42.4447869,20.7219137 42.7896097,20.758171 C43.1344326,20.7944283 43.3361877,20.8125567 43.3948809,20.8125567 C43.5122674,20.8270596 43.6626666,20.8524394 43.846083,20.8886968 C44.0294995,20.9249541 44.2165814,20.982965 44.4073345,21.0627311 C44.5980876,21.1424973 44.7741647,21.2367649 44.9355711,21.3455369 C45.0969776,21.454309 45.2143623,21.5884591 45.2877289,21.7479914 C45.1703424,21.9800383 45.0676307,22.1576966 44.9795909,22.2809716 C44.891551,22.4042465 44.7961759,22.4985142 44.6934627,22.5637774 C44.5907495,22.6290406 44.4843695,22.6616717 44.3743197,22.6616717 L43.9671373,22.6616717 C43.3508581,22.6616717 42.7309199,22.6399176 42.1073041,22.5964088 C41.4836882,22.5529 40.86375,22.5093919 40.2474709,22.4658831 C39.6311917,22.4223743 39.0112535,22.3788661 38.3876377,22.3353573 C37.7640218,22.2918485 37.1367471,22.2700944 36.5057946,22.2700944 C36.5057946,22.5311473 36.4727801,22.9227206 36.4067502,23.4448263 C36.3407203,23.966932 36.2893645,24.5180352 36.2526812,25.0981526 C36.2159979,25.67827 36.230671,26.254753 36.2967009,26.827619 C36.3627308,27.4004849 36.5278031,27.8827003 36.7919228,28.2742795 C37.3054888,27.9697179 37.8410567,27.810188 38.3986426,27.795685 C38.9562285,27.7811821 39.5211426,27.7739308 40.0934018,27.7739308 L41.0398258,27.7739308 C41.4213301,27.7739308 41.7918276,27.8174389 42.1513238,27.9044565 C42.51082,27.9914741 42.8152867,28.1365013 43.064733,28.3395424 C43.3141793,28.5425835 43.4389006,28.8471405 43.4389006,29.2532227 C43.4389006,29.5432814 43.3802083,29.7608222 43.2628217,29.9058515 C43.1454352,30.0508809 42.873983,30.1233945 42.4484569,30.1233945 C42.404437,30.1233945 42.3127301,30.1016404 42.1733337,30.0581316 C42.0339372,30.0146228 41.8872062,29.9638633 41.7331364,29.9058515 C41.5790667,29.8478398 41.436004,29.7970803 41.3039442,29.7535715 C41.1718843,29.7100627 41.0838458,29.6883086 41.0398258,29.6883086 C41.0251525,29.6883086 40.9701284,29.6846829 40.8747519,29.6774315 C40.7793754,29.67018 40.6656589,29.6665543 40.5335991,29.6665543 C40.4015392,29.6665543 40.2731497,29.6629286 40.1484265,29.6556772 C40.0237033,29.6484257 39.9246599,29.6448 39.8512934,29.6448 C39.5138072,29.6448 39.1873308,29.6665541 38.8718546,29.7100629 C38.5563783,29.7535717 38.2812578,29.840588 38.0464848,29.9711144 C37.8117118,30.1016408 37.6246299,30.2901762 37.4852334,30.5367261 C37.3458369,30.783276 37.2761397,31.1023357 37.2761397,31.493915 C37.2761397,31.6244414 37.2908128,31.8492335 37.3201594,32.1682981 C37.3495061,32.4873627 37.3898571,32.8390536 37.4412137,33.2233813 C37.4925703,33.6077091 37.5622675,34.0029082 37.6503073,34.4089904 C37.7383472,34.8150725 37.855732,35.1885175 38.0024651,35.5293365 C38.1491982,35.8701555 38.3142705,36.1529584 38.497687,36.3777539 C38.6811034,36.6025494 38.9048681,36.7149455 39.1689877,36.7149455 C39.1983343,36.7149455 39.2716998,36.7076941 39.3890863,36.6931912 C39.5064728,36.6786883 39.5798383,36.6714369 39.6091849,36.6714369 C40.1080776,36.3378694 40.610631,35.9753015 41.1168604,35.5837222 C41.6230897,35.192143 42.1476528,34.8259494 42.6905654,34.4851304 C43.233478,34.1443114 43.7983921,33.8542571 44.3853246,33.6149586 C44.9722572,33.3756602 45.5811906,33.2560128 46.212143,33.2560128 L46.212143,34.3219732 C46.212143,34.3799849 46.0690804,34.5395148 45.7829508,34.8005676 C45.4968211,35.0616205 45.1226573,35.3661775 44.6604479,35.714248 C44.1982385,36.0623184 43.681012,36.4321377 43.1087527,36.823717 C42.5364935,37.2152962 41.9642428,37.5742385 41.3919836,37.9005545 C40.8197244,38.2268705 40.2731516,38.4987965 39.752249,38.7163405 C39.2313464,38.9338845 38.7948218,39.0426549 38.4426623,39.0426549 C37.9437696,39.0426549 37.4999086,38.8214885 37.1110658,38.379149 C36.7222229,37.9368094 36.373737,37.3494494 36.0655974,36.6170512 C35.7574578,35.884653 35.5006787,35.0398697 35.2952523,34.0826759 C35.0898259,33.1254822 34.9100805,32.1392974 34.7560107,31.124092 C34.6019409,30.1088916 34.4772196,29.097322 34.3818431,28.089368 C34.2864665,27.081414 34.2094328,26.1496144 34.1507395,25.2939413 C34.0920463,24.4382681 34.0516953,23.6950038 34.0296853,23.0641261 C34.0076753,22.4332485 33.989334,21.9945413 33.9746606,21.7479914 Z M47.1145473,29.862343 C47.1145473,29.4997696 47.176908,29.2169666 47.3016311,29.0139255 C47.4263543,28.8108844 47.6941383,28.7093654 48.104991,28.7093654 C48.149011,28.7093654 48.2333813,28.7129911 48.3581044,28.7202425 C48.4828276,28.727494 48.5598613,28.7311197 48.589208,28.7311197 C48.6919212,29.1807107 48.7983011,29.6701774 48.9083509,30.1995345 C49.0184008,30.7288916 49.1467904,31.2618665 49.2935235,31.7984751 C49.4402566,32.3350837 49.6053289,32.8644329 49.7887454,33.3865385 C49.9721618,33.9086442 50.1959265,34.3799825 50.4600461,34.8005676 C50.7241657,34.5250119 50.914916,34.1987007 51.0323025,33.8216244 C51.149689,33.4445481 51.2377275,33.0638518 51.2964208,32.679524 C51.3551141,32.2951962 51.4101382,31.9253769 51.4614947,31.570055 C51.5128513,31.2147331 51.6192313,30.910176 51.7806377,30.6563747 C51.9420442,30.4025733 52.1804819,30.2176637 52.4959582,30.1016402 C52.8114344,29.9856167 53.247959,29.9856167 53.8055449,30.1016402 C54.4218241,30.1016402 54.9133727,30.2140362 55.2802055,30.4388317 C55.6470384,30.6636272 55.9661782,30.9464302 56.2376345,31.2872492 C56.5090908,31.6280682 56.7732064,31.9906361 57.0299894,32.3749639 C57.2867724,32.7592917 57.6132488,33.1037312 58.0094282,33.4082928 L58.3395761,32.7012783 C58.471636,32.4184711 58.6367083,32.1211653 58.834798,31.8093522 C59.0328877,31.4975391 59.2456476,31.1857307 59.4730839,30.8739176 C59.7005203,30.5621045 59.9389581,30.2793015 60.1884044,30.0255002 C60.4378507,29.7716988 60.6946299,29.5614094 60.9587495,29.3946256 C61.2228692,29.2278419 61.4796483,29.1444513 61.7290946,29.1444513 C62.3307005,29.1444513 62.8515953,29.3293609 63.2917947,29.6991857 C63.7319941,30.0690106 64.1098263,30.5330976 64.4253025,31.0914606 C64.7407788,31.6498235 65.0012262,32.2734404 65.2066526,32.9623298 C65.412079,33.6512192 65.573483,34.3147186 65.6908695,34.9528477 C65.808256,35.5909768 65.8926263,36.1747112 65.9439829,36.7040683 C65.9953395,37.2334255 66.0210174,37.6141218 66.0210174,37.8461688 C66.0210174,38.0347069 65.9769981,38.1797341 65.8889583,38.2812546 C65.8009184,38.3827752 65.6908702,38.4589145 65.5588103,38.5096747 C65.4267512,38.560435 65.2836879,38.5930661 65.1296181,38.607569 C64.9755483,38.622072 64.8324856,38.6293233 64.7004258,38.6293233 C64.6710792,38.6293233 64.6270599,38.6256977 64.5683666,38.6184462 C64.5096734,38.6111947 64.4436445,38.6003177 64.3702779,38.5858148 C64.3115846,38.5713118 64.2308826,38.5495577 64.1281694,38.5205519 L62.6975285,32.016018 C62.6975285,31.9725092 62.6388361,31.8891186 62.5214496,31.7658437 C62.4040631,31.6425687 62.3160245,31.5664294 62.2573313,31.5374236 C62.2133113,31.5374236 62.1766286,31.5301722 62.147282,31.5156693 C62.1179354,31.5156693 62.0959257,31.5120436 62.0812524,31.5047921 C62.0665791,31.4975407 62.051906,31.493915 62.0372327,31.493915 C61.7290931,31.493915 61.4392995,31.6171881 61.1678432,31.863738 C60.8963869,32.1102879 60.643276,32.4220982 60.408503,32.7991726 C60.17373,33.1762489 59.9536336,33.5968277 59.7482072,34.0609217 C59.5427808,34.5250156 59.3593671,34.9854769 59.1979607,35.4423193 C59.0365542,35.8991618 58.8934916,36.3197406 58.7687684,36.7040683 C58.6440452,37.0883961 58.5450019,37.3820762 58.4716353,37.5851172 C58.412942,37.6141231 58.2955573,37.6395029 58.1194775,37.6612573 C57.9433978,37.6830117 57.826013,37.6938887 57.7673198,37.6938887 C57.356467,37.6938887 57.0409955,37.5524872 56.8208958,37.26968 C56.6007961,36.9868727 56.4210507,36.6351819 56.2816542,36.2145967 C56.1422577,35.7940116 56.024873,35.3335503 55.9294964,34.8331991 C55.8341199,34.3328478 55.7167351,33.8723865 55.5773386,33.4518014 C55.4379422,33.0312163 55.247192,32.6795254 55.0050823,32.3967182 C54.7629726,32.1139109 54.4218232,31.9725094 53.9816238,31.9725094 C53.8202173,31.9725094 53.6661498,32.1320393 53.5194167,32.4511039 C53.3726836,32.7701685 53.2406257,33.1726189 53.1232392,33.6584672 C53.0058527,34.1443155 52.8958045,34.6664134 52.7930913,35.2247764 C52.6903781,35.7831394 52.6060078,36.3052372 52.5399779,36.7910855 C52.473948,37.2769338 52.4262604,37.6866356 52.3969138,38.0202031 L52.3528941,38.5205519 C52.3235475,38.5640607 52.2648551,38.6111945 52.1768152,38.6619548 C52.0887753,38.7127151 51.9970685,38.7671002 51.901692,38.825112 C51.8063154,38.8831237 51.7109403,38.9266319 51.6155638,38.9556378 C51.5201872,38.9846436 51.45049,38.9991463 51.4064701,38.9991463 C50.9956173,38.9991463 50.5994438,38.8142367 50.2179376,38.4444118 C49.8364315,38.074587 49.4879455,37.5959973 49.1724693,37.0086285 C48.856993,36.4212596 48.5708677,35.772263 48.3140847,35.0616192 C48.0573017,34.3509753 47.8408736,33.6548449 47.6647938,32.973207 C47.4887141,32.291569 47.3529879,31.6752035 47.2576114,31.124092 C47.1622349,30.5729805 47.1145473,30.1524017 47.1145473,29.862343 Z M76.3876617,36.1928424 C75.8300758,36.5699188 75.3495319,36.9071069 74.9460158,37.2044171 C74.5424997,37.5017273 74.1499944,37.7518991 73.7684883,37.9549402 C73.3869821,38.1579813 72.9798038,38.3102599 72.546941,38.4117804 C72.1140783,38.513301 71.5821786,38.5640605 70.9512261,38.5640605 C69.586608,38.5640605 68.5741645,38.2051182 67.9138654,37.4872229 C67.2535663,36.7693276 66.9234217,35.6997522 66.9234217,34.2784646 C66.9234217,33.7273531 66.9967872,33.1544957 67.1435203,32.5598754 C67.2902534,31.965255 67.5066816,31.3742693 67.7928112,30.7869004 C68.0789408,30.1995316 68.4200902,29.6411769 68.8162697,29.1118198 C69.2124492,28.5824627 69.6599785,28.1147501 70.1588712,27.7086679 C70.6577638,27.3025857 71.1896635,26.9799002 71.7545861,26.7406018 C72.3195086,26.5013034 72.9174372,26.3816559 73.5483897,26.3816559 C74.6048683,26.4831765 75.433898,26.7405997 76.0355039,27.1539334 C76.6371098,27.567267 77.0919757,28.0966162 77.4001153,28.7419968 C77.7082548,29.3873774 77.9210147,30.1052619 78.0384012,30.8956719 C78.1557877,31.6860819 78.2474945,32.5018597 78.3135245,33.34303 C78.3795544,34.1842002 78.4639247,35.0253578 78.5666379,35.866528 C78.669351,36.7076983 78.8821109,37.4835937 79.2049238,38.1942375 C79.0141707,38.6728343 78.8344253,39.0100225 78.6656822,39.2058121 C78.4969391,39.4016018 78.3098572,39.4342329 78.1044308,39.3037065 C77.8990044,39.17318 77.6605666,38.8541203 77.3891103,38.3465175 C77.117654,37.8389148 76.7838392,37.1210303 76.3876617,36.1928424 Z M68.7942598,34.3219732 C68.7942598,35.1486405 68.9519956,35.7541289 69.2674718,36.1384567 C69.5829481,36.5227845 70.1441939,36.7149455 70.9512261,36.7149455 C71.552832,36.7149455 72.1287509,36.6098008 72.6790002,36.3995082 C73.2292495,36.1892157 73.7097933,35.8991613 74.120646,35.5293365 C74.5314988,35.1595116 74.8616434,34.7135531 75.1110898,34.1914474 C75.3605361,33.6693418 75.4852574,33.0892331 75.4852574,32.4511039 C75.4852574,32.1900511 75.4925939,31.8238575 75.5072673,31.3525121 C75.5219406,30.8811667 75.4925944,30.413454 75.4192278,29.9493601 C75.3458612,29.4852662 75.2064669,29.0828158 75.0010405,28.7419968 C74.7956141,28.4011779 74.4874791,28.2307709 74.0766263,28.2307709 C73.313614,28.2307709 72.6093055,28.4229319 71.9636797,28.8072597 C71.3180539,29.1915875 70.7604764,29.6810542 70.2909303,30.2756745 C69.8213843,30.8702949 69.454557,31.5265428 69.1904373,32.2444381 C68.9263177,32.9623334 68.7942598,33.6548382 68.7942598,34.3219732 Z M81.5159591,30.8412862 C81.5159591,30.7542686 81.5196274,30.6128671 81.5269641,30.4170774 C81.5343007,30.2212878 81.5416373,30.0146241 81.5489739,29.7970801 C81.5563106,29.579536 81.5636471,29.3692466 81.5709838,29.1662056 C81.5783205,28.9631645 81.5819887,28.8181373 81.5819887,28.7311197 C81.7433952,28.4990727 81.9524868,28.3105374 82.2092698,28.165508 C82.4660527,28.0204787 82.7265002,27.9044569 82.9906198,27.8174393 C83.0346397,28.6005978 83.159361,29.4345041 83.3647874,30.3191831 C83.5702138,31.2038622 83.7903102,32.0921536 84.0250832,32.9840841 C84.2598563,33.8760146 84.4689478,34.7570547 84.6523643,35.6272308 C84.8357807,36.4974069 84.9274875,37.3095591 84.9274875,38.0637117 C84.9274875,38.7163438 84.5900064,39.0426549 83.9150339,39.0426549 C83.5041812,39.0426549 83.1593635,38.8758737 82.8805705,38.5423062 C82.6017775,38.2087387 82.3780129,37.7845342 82.2092698,37.26968 C82.0405266,36.7548258 81.9048005,36.1819684 81.8020873,35.5510908 C81.6993741,34.9202131 81.6296769,34.3002219 81.5929937,33.6910987 C81.5563104,33.0819754 81.5343007,32.5236208 81.5269641,32.016018 C81.5196274,31.5084153 81.5159591,31.1168419 81.5159591,30.8412862 Z M81.8240972,22.683426 C82.1028902,22.7994495 82.3376597,22.9879848 82.5284127,23.2490376 C82.7191658,23.5100905 82.8035361,23.7457596 82.7815261,23.9560522 C82.7595162,24.1663448 82.5944439,24.3113719 82.2863043,24.3911381 C81.9781647,24.4709042 81.4646064,24.3875136 80.745614,24.1409637 C80.745614,23.7493844 80.8226478,23.4085706 80.9767176,23.1185119 C81.1307874,22.8284532 81.4132444,22.683426 81.8240972,22.683426 Z M86.3141087,26.6862161 C86.3141087,26.2656309 86.2847625,25.8559292 86.2260693,25.4570985 C86.1673762,25.0582678 86.1527029,24.7029512 86.1820496,24.3911381 C86.2113962,24.079325 86.3251127,23.8291531 86.5232024,23.6406149 C86.7212921,23.4520768 87.0844512,23.3578091 87.6126905,23.3578091 C87.7740969,23.6913766 87.9318327,24.1989717 88.0859025,24.8806097 C88.2399723,25.5622476 88.3903715,26.3453944 88.5371046,27.2300734 C88.6838378,28.1147524 88.8232321,29.0755575 88.955292,30.1125173 C89.0873518,31.1494772 89.2084048,32.1900472 89.3184547,33.2342585 C89.4285045,34.2784698 89.5238796,35.3045371 89.6045829,36.3124911 C89.6852861,37.320445 89.7476467,38.2377419 89.7916667,39.0644092 C89.3074473,39.3834738 88.9186103,39.4052279 88.6251441,39.1296721 C88.3316778,38.8541163 88.0895717,38.3864037 87.8988187,37.7265202 C87.7080656,37.0666366 87.5613347,36.2617358 87.4586215,35.3117935 C87.3559083,34.3618513 87.2568649,33.3756665 87.1614883,32.3532096 C87.0661118,31.3307527 86.9523953,30.3228138 86.8203355,29.3293628 C86.6882757,28.3359117 86.5195351,27.4548716 86.3141087,26.6862161 Z" id="Email" fill="#FFFFFF" fill-rule="nonzero"></path>
                </g>
            </g>
        </g>
    </g>
</svg>